<svg xmlns="http://www.w3.org/2000/svg" width="500" height="500" viewBox="-7.8 1.325 144.6 144.6"><path fill="transparent" d="M-22.26 -13.135h173.52v173.52h-173.52z"/><path fill="#01193f" d="M65.99 48.64a2.6 2.6 0 0 0-1.69.88c-1.4 1.5-.84 4.37.95 4.85.43.13 1.6.14 4.64.1l4.06-.08-.05 13.32c-.05 10.05-.02 13.49.09 13.99.12.54.26.76.67 1.12.95.83.78.8 6.82.8h5.48l.52-.35c.28-.18.66-.53.83-.77.28-.38.32-.54.32-1.54 0-1.31-.18-1.77-.9-2.4-.7-.6-1.32-.69-4.48-.69H80.5v-13.1c0-11.02-.04-13.22-.19-13.95-.21-.98-.5-1.37-1.41-1.83-.51-.25-.79-.3-2.09-.33-3.78-.09-10.31-.1-10.82-.02m88.01 8.7c-.95.1-2.74.58-3.56.98-2.38 1.12-3.89 3-4.66 5.8l-.34 1.2v13.32c0 11.17.02 13.36.17 13.53.15.2.5.2 3.19.18l3.01-.04.04-6.41.03-6.4h24.75v-6.63h-.6c-.33 0-5.8-.06-12.18-.1-6.37-.06-11.64-.15-11.69-.2a19 19 0 0 1-.1-2.73c0-2.48.03-2.7.29-3.4.5-1.29 1.26-1.88 2.69-2.07.5-.06 5.6-.12 11.37-.12 10.29 0 10.46 0 10.71-.25.24-.24.25-.41.25-3.3 0-2.68-.02-3.06-.2-3.21-.17-.15-2.12-.18-11.47-.19-6.2-.01-11.46 0-11.7.04m-58.91 3c-.13.11-.1 7.43.01 7.63.09.12.91.15 3.73.13l3.6-.04v-7.75l-3.63-.04c-2 0-3.66.02-3.71.07M186 68.13l-3.19.06v5.5l7 .09c10.11.12 10.03.1 10.65.45.74.38.89.67.99 1.93l.09 1.12-7.55-.05c-8.46-.04-8.49-.04-10.21.8-1.45.7-2.3 1.7-2.92 3.55-.27.78-.3 1.03-.27 2.95.01 1.68.07 2.27.29 3.05.7 2.6 2.2 3.95 5.03 4.56 1.04.21 1.69.24 8.14.24 6.35 0 7.12-.03 8.14-.24q4.77-.99 5.32-6.04c.18-1.61.08-12.32-.12-13.06a6.9 6.9 0 0 0-4.98-4.8c-.85-.23-1.31-.24-7.06-.21-3.39 0-7.6.06-9.35.1m15.61 14.1c.13.1.18.43.18 1.3 0 1.76-.49 2.63-1.71 3.06-.58.2-1.2.22-6.08.22-5.09 0-5.47-.01-6.05-.24a2 2 0 0 1-.96-.73c-.31-.44-.36-.62-.36-1.33 0-.74.03-.87.38-1.3a2.6 2.6 0 0 1 1.58-.95c.61-.15 12.8-.16 13.02-.02m44.2-14.15-1.25.23c-1.31.25-2.31.8-3.32 1.8a6.3 6.3 0 0 0-1.85 3.18c-.25.94-.26 1.32-.26 6.95 0 5.59 0 6.01.25 6.92.45 1.7 1.3 2.88 3.1 4.32 1.17.91 1.05.9 11.9.86l9.56-.04v-5.75h-8.13c-4.46 0-8.37-.05-8.69-.11-1.45-.28-2.1-1.28-2.12-3.24v-.34h6.85c7.44 0 8.41-.07 9.93-.7a5 5 0 0 0 1.97-1.3c.06-.12.2-.3.3-.4a4.5 4.5 0 0 0 .83-1.95q.15-.76.1-2.86c-.07-1.82-.12-2.22-.4-3.07-.84-2.52-2.3-3.8-4.9-4.34-1.12-.24-1.67-.25-7.42-.24-3.41.01-6.31.04-6.45.08m11.67 5.71c1.16.41 1.77 1.19 1.77 2.23q0 1.24-1.07 1.62c-.55.19-1.25.21-6.83.22-4.79 0-6.24-.03-6.3-.15a5 5 0 0 1-.15-1.25c-.06-1.2.11-1.66.81-2.17.73-.54 1.11-.6 4.29-.69 4.35-.11 6.81-.05 7.48.19m-40.27-5.54c-.72.18-1.96.8-2.61 1.33a7.3 7.3 0 0 0-2.36 3.6l-.3.87v12.5l.32.94c.59 1.66 1.23 2.57 2.34 3.34a7.5 7.5 0 0 0 3.15 1.3c1.1.21 1.79.23 9.06.23 5.98 0 7.93-.03 8.04-.15.21-.2.21-5.36 0-5.57-.11-.11-1.33-.15-4.59-.16-2.45-.02-5.85-.05-7.57-.1-3.54-.09-3.69-.13-4.29-1.05l-.34-.53v-9.26l.3-.45c.18-.26.58-.58.94-.76l.64-.32 7.43-.07c4.1-.04 7.48-.13 7.53-.18.06-.06.09-1.33.07-2.85l-.03-2.73-8.63-.03c-4.74 0-8.84.04-9.1.1M70.56 91.36a3.8 3.8 0 0 0-2.14 1.84c-.1.23-.17.78-.17 1.23 0 .73.04.84.49 1.4 1.65 2.1 5.1 3.9 9.26 4.8 1.13.26 1.66.3 3.81.3 2.63 0 3.8-.17 5.94-.82a22 22 0 0 0 7.26-3.95c.63-.57 1.04-1.62.91-2.34-.22-1.4-1.46-2.57-2.73-2.57-.76 0-1.36.27-2.78 1.21-.96.64-1.59.98-2.91 1.59-.67.3-1.95.67-3.3.95-3.51.72-6.94-.16-10.89-2.83-1.22-.82-1.45-.92-1.94-.9-.3 0-.67.04-.8.1m-30.81 3.94c-.67.21-1.06.58-1.48 1.38l-.34.62v7.19c0 7.14 0 7.2.29 8.25a9 9 0 0 0 1.65 3.26c.27.3.5.59.5.63 0 .15 1.45 1.21 2.06 1.51.35.18 1.07.45 1.62.61l1 .3h9.32c10.27 0 9.6.05 10.46-.77.77-.75.85-.97.85-2.6 0-1.41-.03-1.53-.34-2.01-.36-.58-1.54-1.24-2.41-1.38-.28-.04-3.97-.09-8.19-.1-6.6-.01-7.78-.05-8.35-.21-.8-.25-1.09-.49-1.49-1.29-.45-.89-.52-2.12-.54-8.24 0-5.07 0-5.23-.26-5.75a3 3 0 0 0-1.69-1.45 6 6 0 0 0-2.66.05m80.55.03c-.79.24-1.26.66-1.67 1.54l-.33.68-.06 6.38-.06 6.37-.38.55c-.52.79-1.22 1.11-2.69 1.26-.65.07-4.36.13-8.25.13-4.23 0-7.27.05-7.6.13-.3.07-.83.32-1.2.55-.94.6-1.24 1.33-1.17 2.88.05 1.25.29 1.81 1.03 2.48.92.81.4.77 9.7.81 9 .04 10.17-.01 11.72-.54 2.9-.96 4.36-2.64 5.3-6.07.29-1.04.29-1.14.29-8.24 0-7.86.05-7.35-.78-8.26-.73-.81-2.37-1.09-3.85-.65"/><path fill="#06c6ce" d="M47 28.38a23 23 0 0 0-2.75.23 8.4 8.4 0 0 0-5.51 5.08c-.68 1.75-.77 3.15-.68 9.81.04 3.55.13 6.15.21 6.46.13.53.7 1.23 1.3 1.63.4.25 2.27.28 2.94.06.44-.15 1.13-.85 1.69-1.71.22-.34.24-.73.3-6.94l.06-6.56.3-.49c.23-.35.51-.59 1.06-.84l.77-.36 4.68-.01c2.58-.01 6.44-.05 8.57-.1 3.25-.08 3.93-.13 4.25-.3.85-.46 1.5-1.89 1.41-3.14-.08-.97-.4-1.65-1.06-2.15-1.04-.79-1.17-.8-8.63-.77-3.7 0-7.71.05-8.91.1m52 .07c-.66.29-1.24.9-1.64 1.74a2.9 2.9 0 0 0-.12 2.5c.31.87.69 1.33 1.39 1.7l.56.3 8.62.06 8.63.06.54.3c.6.36 1.2 1.2 1.4 2.01.07.34.16 3.03.22 6.77l.09 6.2.32.42c.61.8 1.29 1.16 2.25 1.21 1.81.12 2.63-.28 3.26-1.57l.3-.59V42.7c0-6.8-.02-6.89-.3-7.94a8 8 0 0 0-2.2-3.94 7 7 0 0 0-2.08-1.54c-1.93-.93-2-.93-11.99-.98-7.71-.03-8.86-.02-9.25.16m176.25 29.29c-.37.38-.41.69-.35 3.38.03 1.8.09 2.53.2 2.64.12.13 2.25.18 9.77.25 6.35.06 9.84.13 10.3.23.57.11.73.21 1 .6.4.59.57 1.34.58 2.59a9 9 0 0 1-.51 3.19c-.18.4-.4.66-.84.93-1.19.75-.92.73-8.09.83-3.85.05-6.86.14-7.19.21-2 .48-3.67 1.4-4.8 2.68-2.32 2.58-2.84 4.38-3.37 11.6-.1 1.4-.2 3.15-.22 3.87l-.04 1.31 14.6.04c13.73.03 14.6.01 14.67-.19.05-.12.09-1.54.09-3.16l.01-2.94-11.27-.04c-8.92-.02-11.29-.06-11.29-.18.02-.98.41-3.75.61-4.36.39-1.14.83-1.58 2.15-2.12.66-.27.83-.27 7.61-.37 6.52-.08 7-.1 7.7-.34a10 10 0 0 0 4.47-3.09c1.61-2.11 2.33-5.31 2.17-9.75-.07-1.94-.25-2.79-.82-3.92a6.5 6.5 0 0 0-3.34-3.2c-1.94-.94-1.87-.94-13.44-.94-9.9 0-10.11 0-10.36.25m42.19-.16c-2.44.3-3.95.85-5.21 1.9a10.4 10.4 0 0 0-3.17 4.88l-.1.25c-.22.55-.59 3.38-.71 5.63a40 40 0 0 1-.2 2.76 95 95 0 0 0-.3 3.13l-.39 4.3c-.2 2.06-.07 5.03.26 6.1.77 2.42 2.63 4.18 5.37 5.08 1.41.47 2.51.52 11.2.48l8.37-.04 1-.36c3.49-1.25 5.51-4.35 5.94-9.08.08-.78.15-1.57.19-1.75s.15-1.6.25-3.18l.26-4.04.09-1.15h-17.15l-.14.5a34 34 0 0 0-.37 4.65v.97h10.65l-.05 2.1c-.06 1.84-.1 2.18-.36 2.84-.17.4-.53.98-.8 1.26-.82.84-.8.84-9.42.72l-7.55-.1-.23-.28a8 8 0 0 1-.63-1.5c-.52-1.55-.6-3-.32-5.41.12-.92.32-2.95.45-4.5.43-5.04.62-6.49.95-7.3.52-1.26 1.33-1.9 2.84-2.25.74-.17 2.29-.2 11.65-.2 6.63 0 10.83-.05 10.88-.11.07-.14.6-4.74.6-5.28 0-.17-.04-.46-.08-.63l-.09-.32-4.13-.07c-4.22-.09-18.87-.09-19.55 0m-298.5 2.67c-1.7.08-1.87.11-2.54.58-.79.52-.96.86-1.01 2-.02.57 0 1.18.03 1.35.13.47.85 1.21 1.54 1.56l.6.31 5.44.04c2.99.01 6.83-.01 8.53-.08l3.1-.1.44-.42c.6-.59 1.18-1.6 1.18-2.09 0-.94-.26-1.7-.77-2.19-1.17-1.12-1.33-1.13-8.72-1.08-3.41.02-6.92.08-7.82.12m332.5 8.13c-2.89.41-5.13 2.52-5.9 5.56-.2.76-.23 1.51-.23 6.49 0 5.9.04 6.41.59 7.63a7 7 0 0 0 4.23 3.7l.8.3h6.76c6.01 0 6.81-.03 7.37-.22a6 6 0 0 0 3.23-2.05 8 8 0 0 0 1.69-3.05c.32-.94.32-.96.37-6.13.05-5.7-.01-6.58-.6-8a9 9 0 0 0-1.75-2.6 7 7 0 0 0-3.71-1.65 184 184 0 0 0-12.85.02m11.44 5.41c.85.29 1.06.42 1.47 1.04l.34.47v9.25l-.34.58c-.49.8-.85 1.1-1.69 1.4-.66.23-1.05.26-4.84.31-3.12.04-4.26 0-4.68-.13l-.64-.16a3 3 0 0 1-1.05-.67 4 4 0 0 1-.46-1.1c-.21-.74-.24-1.32-.24-4.49 0-3.24.03-3.74.24-4.41.3-.99.74-1.54 1.45-1.88.9-.42 1.64-.49 5.81-.45 3.39.01 4.04.05 4.63.24M6.21 71.31c-.55.19-.96.54-1.47 1.24-.33.44-.36.59-.36 1.48 0 1.04.2 1.7.65 2.2.82.86 2.57 1.1 3.55.48A2.7 2.7 0 0 0 10 74.1q-.01-2.06-1.91-2.72c-.83-.3-1.21-.3-1.88-.07m9.23.03a3 3 0 0 0-1.58 1.26c-.31.49-.36.7-.36 1.43 0 .86.24 1.7.61 2.14.12.13.43.38.7.57l.5.32h27.25l.63-.31c.4-.2.76-.51 1-.85.35-.51.37-.62.37-1.69-.01-1.62-.35-2.16-1.81-2.78-.54-.23-1.04-.24-13.69-.27-11.86-.02-13.17-.01-13.62.18m8.37 11.02c-7.45.09-7.17.05-7.95 1.03-.38.5-.42.62-.47 1.54-.05 1.27.11 1.82.74 2.34.98.85.95.85 9.58.85 8.79 0 8.68.02 9.56-.9a5 5 0 0 0 1.1-2.03c0-.35-.52-1.58-.82-1.93-.16-.2-.56-.49-.89-.64-.74-.35-1.36-.36-10.85-.26"/></svg>